<svg width="19" height="21" viewBox="0 0 19 21" fill="none" xmlns="http://www.w3.org/2000/svg">
<g id="Frame" clip-path="url(#clip0_102_30)">
<g id="Group">
<path id="Vector" d="M17.7782 5.33772C17.2797 6.06688 16.677 6.68816 15.9702 7.20156C15.9776 7.30572 15.9813 7.46197 15.9813 7.67031C15.9813 8.63757 15.84 9.60297 15.5572 10.5665C15.2745 11.5301 14.8448 12.4545 14.2682 13.3399C13.6915 14.2254 13.0052 15.0085 12.209 15.6893C11.4129 16.3701 10.4531 16.9132 9.32956 17.3187C8.20605 17.7242 7.00441 17.927 5.72465 17.927C3.70828 17.927 1.86304 17.3876 0.188934 16.3087C0.449351 16.3385 0.73953 16.3533 1.05947 16.3533C2.73358 16.3533 4.22539 15.8399 5.53492 14.8132C4.75367 14.7983 4.05426 14.5583 3.4367 14.0933C2.81914 13.6283 2.39504 13.0349 2.16438 12.3132C2.40992 12.3504 2.63685 12.369 2.84518 12.369C3.16512 12.369 3.48135 12.328 3.79385 12.2462C2.96051 12.0751 2.27041 11.6603 1.72353 11.0018C1.17666 10.3433 0.90322 9.57879 0.90322 8.70825V8.66361C1.40917 8.94635 1.95233 9.09888 2.53268 9.1212C2.04161 8.79382 1.65099 8.36599 1.36081 7.83772C1.07063 7.30944 0.925541 6.73653 0.925541 6.11897C0.925541 5.4642 1.08923 4.85781 1.41661 4.29977C2.31691 5.4084 3.41252 6.29568 4.70344 6.9616C5.99437 7.62752 7.37643 7.99769 8.84965 8.07209C8.79012 7.78935 8.76036 7.51406 8.76036 7.2462C8.76036 6.24917 9.11193 5.3991 9.81505 4.69598C10.5182 3.99285 11.3682 3.64129 12.3653 3.64129C13.4069 3.64129 14.2849 4.02075 14.9992 4.77968C15.8102 4.62343 16.5729 4.33325 17.2871 3.90914C17.0119 4.7648 16.4836 5.427 15.7023 5.89575C16.3943 5.82135 17.0863 5.63533 17.7782 5.33772Z" fill="#F1F1F1" fill-opacity="0.753"/>
</g>
</g>
<defs>
<clipPath id="clip0_102_30">
<rect width="18.58" height="20" fill="white" transform="matrix(1 0 0 -1 0.184662 20.7842)"/>
</clipPath>
</defs>
</svg>
